<svg width="24" height="22" viewBox="0 0 24 22" fill="none" xmlns="http://www.w3.org/2000/svg">
<path d="M21.3036 2.76873C20.766 2.20818 20.1278 1.76351 19.4253 1.46012C18.7228 1.15674 17.9699 1.00059 17.2095 1.00059C16.4491 1.00059 15.6961 1.15674 14.9936 1.46012C14.2912 1.76351 13.6529 2.20818 13.1153 2.76873L11.9997 3.93153L10.8841 2.76873C9.79827 1.63698 8.32556 1.00117 6.78997 1.00117C5.25437 1.00117 3.78167 1.63698 2.69584 2.76873C1.61001 3.90048 1 5.43546 1 7.036C1 8.63653 1.61001 10.1715 2.69584 11.3033L11.9997 21.0006L21.3036 11.3033C21.8414 10.743 22.268 10.0777 22.5591 9.34554C22.8502 8.61334 23 7.82855 23 7.036C23 6.24344 22.8502 5.45865 22.5591 4.72646C22.268 3.99427 21.8414 3.32902 21.3036 2.76873Z" stroke="#BDBDBD" stroke-width="2" stroke-linecap="round" stroke-linejoin="round"/>
</svg>
