<svg width="20" height="16" viewBox="0 0 20 16" fill="none" xmlns="http://www.w3.org/2000/svg">
<path d="M19.3333 1.89415C18.6391 2.21538 17.8995 2.42831 17.1283 2.53169C17.9216 2.032 18.5271 1.24677 18.8118 0.300308C18.0721 0.765538 17.2555 1.09415 16.3851 1.27754C15.6828 0.488616 14.6818 0 13.5898 0C11.4711 0 9.76546 1.81415 9.76546 4.03815C9.76546 4.35815 9.79113 4.66585 9.85413 4.95877C6.67263 4.79508 3.85746 3.18646 1.96629 0.736C1.63613 1.34031 1.44246 2.032 1.44246 2.77662C1.44246 4.17477 2.12496 5.41415 3.14229 6.13169C2.52746 6.11938 1.92429 5.93108 1.41329 5.63446C1.41329 5.64677 1.41329 5.66277 1.41329 5.67877C1.41329 7.64062 2.73979 9.27015 4.47929 9.64554C4.16779 9.73538 3.82829 9.77846 3.47596 9.77846C3.23096 9.77846 2.98363 9.76369 2.75146 9.70954C3.24729 11.3083 4.65429 12.4837 6.32729 12.5218C5.02529 13.5963 3.37213 14.2437 1.58246 14.2437C1.26863 14.2437 0.967626 14.2289 0.666626 14.1883C2.36179 15.3415 4.37079 16 6.53729 16C13.5793 16 17.4293 9.84615 17.4293 4.512C17.4293 4.33354 17.4235 4.16123 17.4153 3.99015C18.1748 3.42154 18.813 2.71138 19.3333 1.89415Z" fill="white"/>
</svg>
