<svg width="16" height="16" viewBox="0 0 16 16" fill="none" xmlns="http://www.w3.org/2000/svg">
<path d="M13.6 8V15H2.4V8M8 15V4.5M8 4.5H4.85C4.38587 4.5 3.94075 4.31563 3.61256 3.98744C3.28437 3.65925 3.1 3.21413 3.1 2.75C3.1 2.28587 3.28437 1.84075 3.61256 1.51256C3.94075 1.18437 4.38587 1 4.85 1C7.3 1 8 4.5 8 4.5ZM8 4.5H11.15C11.6141 4.5 12.0592 4.31563 12.3874 3.98744C12.7156 3.65925 12.9 3.21413 12.9 2.75C12.9 2.28587 12.7156 1.84075 12.3874 1.51256C12.0592 1.18437 11.6141 1 11.15 1C8.7 1 8 4.5 8 4.5ZM1 4.5H15V8H1V4.5Z" stroke="#0091FF" stroke-linecap="round" stroke-linejoin="round"/>
</svg>
