<svg width="8" height="20" viewBox="0 0 8 20" fill="none" xmlns="http://www.w3.org/2000/svg">
<path d="M1.72916 4.28164C1.72916 4.75205 1.72916 6.85168 1.72916 6.85168H0V9.99432H1.72916V19.3332H5.28122V9.99459H7.66481C7.66481 9.99459 7.88804 8.48771 7.99625 6.84009C7.68601 6.84009 5.29465 6.84009 5.29465 6.84009C5.29465 6.84009 5.29465 5.0118 5.29465 4.69133C5.29465 4.37018 5.68193 3.93818 6.06471 3.93818C6.44677 3.93818 7.25314 3.93818 8 3.93818C8 3.5103 8 2.0319 8 0.666504C7.00296 0.666504 5.86865 0.666504 5.36866 0.666504C1.64136 0.666287 1.72916 3.81206 1.72916 4.28164Z" fill="white"/>
</svg>
