<svg width="20" height="14" viewBox="0 0 20 14" fill="none" xmlns="http://www.w3.org/2000/svg">
<path d="M19.0107 2.47832C18.7822 1.46098 17.9702 0.710422 16.9927 0.598459C14.6779 0.333659 12.3351 0.332277 10.0029 0.333659C7.67046 0.332277 5.32717 0.333659 3.01241 0.598459C2.03548 0.710422 1.22407 1.46098 0.995545 2.47832C0.670287 3.92712 0.666626 5.50861 0.666626 7.00026C0.666626 8.49191 0.666626 10.0732 0.991884 11.5218C1.22003 12.5389 2.03163 13.2895 3.00914 13.4017C5.32371 13.6667 7.66679 13.668 9.99928 13.6667C12.3322 13.668 14.6747 13.6667 16.989 13.4017C17.966 13.2897 18.7782 12.5391 19.0067 11.5218C19.3321 10.073 19.3333 8.49171 19.3333 7.00026C19.3333 5.50861 19.336 3.92712 19.0107 2.47832ZM7.59107 9.96934C7.59107 7.85331 7.59107 5.75939 7.59107 3.64317C9.5694 4.70098 11.5346 5.75169 13.5255 6.81603C11.5408 7.87088 9.5746 8.91527 7.59107 9.96934Z" fill="white"/>
</svg>
