<svg width="14" height="22" viewBox="0 0 14 22" fill="none" xmlns="http://www.w3.org/2000/svg">
<path d="M5.90703 15.3599C4.18566 15.1874 2.63359 14.7801 1.30476 13.7816C1.13988 13.6573 0.969653 13.5376 0.81919 13.3988C0.237569 12.8622 0.178965 12.2475 0.639192 11.6141C1.03291 11.0721 1.69383 10.9271 2.3808 11.2383C2.51382 11.2986 2.64056 11.3739 2.76196 11.4548C5.23844 13.0896 8.64049 13.1347 11.1263 11.5283C11.3726 11.3469 11.6358 11.199 11.9409 11.1235C12.5342 10.9771 13.0874 11.1865 13.4058 11.6852C13.7695 12.2547 13.7648 12.8106 13.3167 13.2527C12.6293 13.9306 11.8025 14.421 10.884 14.7633C10.0154 15.0868 9.06397 15.2497 8.12236 15.3578C8.26445 15.5064 8.33142 15.5795 8.42026 15.6653C9.69885 16.8995 10.983 18.1286 12.2574 19.3666C12.6916 19.7884 12.7823 20.3114 12.5432 20.8021C12.2818 21.3383 11.6967 21.6911 11.123 21.6533C10.7595 21.6292 10.476 21.4554 10.2242 21.2116C9.25932 20.2788 8.27631 19.3632 7.33097 18.4128C7.05586 18.1364 6.92353 18.1887 6.68075 18.4286C5.71006 19.3887 4.72356 20.334 3.73125 21.274C3.28567 21.696 2.75545 21.772 2.23871 21.5309C1.68941 21.2751 1.33988 20.7364 1.36686 20.195C1.38546 19.8288 1.5729 19.5491 1.83453 19.2982C3.09986 18.0843 4.3617 16.8673 5.62401 15.6514C5.7075 15.5705 5.78541 15.4847 5.90703 15.3599Z" fill="white"/>
<path d="M6.95563 11.1315C3.88473 11.1215 1.36662 8.6756 1.38453 5.72056C1.40221 2.7329 3.92194 0.325251 7.02307 0.333517C10.1305 0.341561 12.6246 2.78384 12.609 5.80256C12.5932 8.75156 10.0577 11.1418 6.95563 11.1315ZM9.74652 5.72771C9.74117 4.26046 8.52491 3.09239 7.00074 3.09105C5.46378 3.08949 4.23659 4.27879 4.24845 5.75943C4.25985 7.22109 5.48657 8.3809 7.01493 8.37554C8.53863 8.3704 9.75164 7.19473 9.74652 5.72771Z" fill="white"/>
</svg>
