<svg width="20" height="12" viewBox="0 0 20 12" fill="none" xmlns="http://www.w3.org/2000/svg">
<path fill-rule="evenodd" clip-rule="evenodd" d="M16.732 7.44886C17.3512 8.05929 18.0047 8.63362 18.56 9.30562C18.8054 9.60424 19.0376 9.9124 19.2153 10.259C19.4671 10.7516 19.239 11.2937 18.8016 11.3231L16.0822 11.3219C15.3808 11.3807 14.8212 11.0956 14.3508 10.6113C13.9743 10.2241 13.6256 9.81195 13.2636 9.41164C13.1151 9.24802 12.9598 9.09407 12.7742 8.97237C12.403 8.72906 12.0807 8.80356 11.8686 9.19452C11.6525 9.59216 11.6035 10.0325 11.5823 10.4756C11.5532 11.1222 11.3596 11.2922 10.7164 11.3218C9.3417 11.3873 8.03707 11.1773 6.82511 10.4771C5.75661 9.85976 4.92803 8.98829 4.20684 8.0017C2.80267 6.0806 1.72735 3.96962 0.760899 1.7995C0.543358 1.31057 0.702451 1.04811 1.2367 1.03882C2.12386 1.02142 3.01088 1.02266 3.89908 1.03758C4.25964 1.04291 4.49834 1.25173 4.63756 1.59569C5.11754 2.78739 5.70484 3.92119 6.44204 4.97213C6.63836 5.25192 6.83854 5.53172 7.12361 5.72865C7.43897 5.9467 7.67908 5.87443 7.82744 5.5197C7.92159 5.29478 7.9628 5.05251 7.98402 4.81161C8.05431 3.98281 8.06357 3.15544 7.94029 2.32955C7.86461 1.81411 7.57709 1.48044 7.06774 1.3829C6.80782 1.33317 6.84652 1.23551 6.97237 1.0857C7.19095 0.827334 7.39653 0.666504 7.80635 0.666504H10.8797C11.3635 0.762928 11.471 0.982404 11.5372 1.474L11.5399 4.92116C11.5346 5.11147 11.634 5.6762 11.9735 5.80216C12.2452 5.89183 12.4243 5.67236 12.5873 5.4984C13.3231 4.70979 13.8483 3.77782 14.3175 2.81278C14.5257 2.38844 14.7047 1.94776 14.8782 1.50744C15.0068 1.1807 15.2085 1.01993 15.573 1.02706L18.5309 1.02972C18.6186 1.02972 18.7074 1.03102 18.7923 1.0457C19.2907 1.13147 19.4273 1.34797 19.2734 1.83944C19.0308 2.61052 18.5589 3.2531 18.0974 3.89865C17.6041 4.58786 17.0766 5.25347 16.5874 5.94677C16.138 6.57987 16.1737 6.89899 16.732 7.44886Z" fill="white"/>
</svg>
