<svg width="19" height="15" viewBox="0 0 19 15" fill="none" xmlns="http://www.w3.org/2000/svg">
<path d="M0.663083 7.03261L4.96426 8.48131L6.62908 13.3129C6.73561 13.6224 7.15492 13.7368 7.43324 13.5314L9.83079 11.7676C10.0821 11.5828 10.4401 11.5736 10.7027 11.7457L15.027 14.5789C15.3248 14.7742 15.7466 14.6269 15.8212 14.3023L18.989 0.551374C19.0706 0.196723 18.6844 -0.0991368 18.3102 0.0314706L0.658043 6.1767C0.222425 6.32831 0.22622 6.88488 0.663083 7.03261ZM6.36078 7.71013L14.7669 3.03797C14.918 2.95425 15.0734 3.13859 14.9437 3.24719L8.00619 9.06669C7.76234 9.27153 7.60504 9.54566 7.56049 9.8432L7.32417 11.4236C7.29287 11.6346 6.9644 11.6556 6.89987 11.4514L5.99099 8.56941C5.88689 8.2407 6.03859 7.88959 6.36078 7.71013Z" fill="white"/>
</svg>
