<svg width="22" height="15" viewBox="0 0 22 15" fill="none" xmlns="http://www.w3.org/2000/svg">
<path d="M7.46597 2.66667C8.95556 2.66667 10.303 3.45729 11.0752 4.5467L12.9055 2.63993C11.8109 1.16753 9.70397 0 7.46597 0C3.54737 0 0.333374 3.28003 0.333374 7.33333C0.333374 11.3866 3.54737 14.6667 7.46597 14.6667C10.7144 14.6667 13.447 12.4134 14.2849 9.33333C14.4653 8.69323 14.5556 8.02656 14.5556 7.33333V6.66667H8.11048V9.33281H11.5264C10.8174 10.9063 9.25768 12 7.46597 12C4.97822 12 2.91142 9.9066 2.91142 7.33333C2.91142 4.76007 4.97822 2.66667 7.46597 2.66667Z" fill="white"/>
<path d="M16.3334 6.41667H21.6667V8.25H16.3334V6.41667Z" fill="white"/>
<path d="M19.8889 4.58333V10.0833H18.1112V4.58333H19.8889Z" fill="white"/>
</svg>
