<svg width="24" height="26" viewBox="0 0 24 26" fill="none" xmlns="http://www.w3.org/2000/svg">
<path d="M17.5 9.84307L6.5 3.63925M1.33 6.92644L12 12.9629L22.67 6.92644M12 25V12.951M23 17.7323V8.1696C22.9996 7.75036 22.8864 7.33861 22.6719 6.97564C22.4574 6.61268 22.149 6.31127 21.7778 6.10166L13.2222 1.32029C12.8506 1.11046 12.4291 1 12 1C11.5709 1 11.1494 1.11046 10.7778 1.32029L2.22222 6.10166C1.85099 6.31127 1.54264 6.61268 1.32812 6.97564C1.1136 7.33861 1.00044 7.75036 1 8.1696V17.7323C1.00044 18.1516 1.1136 18.5633 1.32812 18.9263C1.54264 19.2892 1.85099 19.5906 2.22222 19.8003L10.7778 24.5816C11.1494 24.7915 11.5709 24.9019 12 24.9019C12.4291 24.9019 12.8506 24.7915 13.2222 24.5816L21.7778 19.8003C22.149 19.5906 22.4574 19.2892 22.6719 18.9263C22.8864 18.5633 22.9996 18.1516 23 17.7323Z" stroke="black" stroke-width="2" stroke-linecap="round" stroke-linejoin="round"/>
</svg>
