<svg width="20" height="20" viewBox="0 0 20 20" fill="none" xmlns="http://www.w3.org/2000/svg">
<path fill-rule="evenodd" clip-rule="evenodd" d="M5.81785 0.666504H14.1819C17.0225 0.666504 19.3334 2.97745 19.3333 5.81784V14.1818C19.3333 17.0222 17.0225 19.3332 14.1819 19.3332H5.81785C2.97746 19.3332 0.666626 17.0223 0.666626 14.1818V5.81784C0.666626 2.97745 2.97746 0.666504 5.81785 0.666504ZM13.7333 9.99984C13.7333 12.0617 12.0618 13.7332 9.99996 13.7332C7.9381 13.7332 6.26663 12.0617 6.26663 9.99984C6.26663 7.93795 7.9381 6.2665 9.99996 6.2665C12.0618 6.2665 13.7333 7.93795 13.7333 9.99984ZM15.1333 6.2665C15.9065 6.2665 16.5333 5.63971 16.5333 4.8665C16.5333 4.0933 15.9065 3.4665 15.1333 3.4665C14.3601 3.4665 13.7333 4.0933 13.7333 4.8665C13.7333 5.63971 14.3601 6.2665 15.1333 6.2665Z" fill="white"/>
</svg>
